# xmcd
#
# Track frame offsets:
# 150
# 14232
# 27214
# 39365
# 51803
# 64180
# 78130
# 91400
# 104200
# 118068
# 132593
# 145710
# 156127
# 169298
# 182562
# 195732
#
# Disc length: 2793 seconds
#
#
# Revision: 0
# Processed by: cddbd v1.5.1PL0 Copyright (c) Steve Scherf et al.
# Submitted via: FreeRIP 2.80 
#
DISCID=e10ae710
DTITLE=John Lee Hooker - The Collection 1948-52
DYEAR=2003
DGENRE=U.S.A.
TTITLE0=Three Voice Original Mood (aka I'm In The Mood)
TTITLE1=Johnny Lee's Original Boogie
TTITLE2=I Gotta Be Comin' Back (aka Boogie Chillen)
TTITLE3=I Rule My Den (aka Crawling King Snake)
TTITLE4=Johnny Lee and The Thing
TTITLE5=There's a Day Comin' Baby (aka Sally Mae)
TTITLE6=She Was In Chicago
TTITLE7=Long, Long Way from Home
TTITLE8=My Baby She's Long and Tall
TTITLE9=Forgive Me
TTITLE10=Slow Down Your Chatter Baby (aka Let Your Daddy Ride)
TTITLE11=Baby Please Don't Go
TTITLE12=No Friend Around (aka T.B.'s Killin' Me)
TTITLE13=Come Back Baby
TTITLE14=The Winding Highway
TTITLE15=Snap Them Fingers Boogie
EXTD=early Detroit sessions 1948 - 1952
EXTT0=
EXTT1=
EXTT2=
EXTT3=
EXTT4=
EXTT5=
EXTT6=
EXTT7=
EXTT8=
EXTT9=
EXTT10=
EXTT11=
EXTT12=
EXTT13=
EXTT14=
EXTT15=
PLAYORDER=
